<svg id="Solid" height="512" viewBox="0 0 512 512" width="512" xmlns="http://www.w3.org/2000/svg"><path d="m277.479 226.171a8 8 0 0 1 1.305 10.069l-32.131 51.41c19.746-.744 56.113-3.068 88.152-10.309 19.537-22.521 56.207-72.691 49.857-103.643-2.057-10.024-8.57-17.347-19.911-22.387a8 8 0 0 1 -4.512-9.251c.348-1.394 8.828-34.441 34.1-59.717a8.008 8.008 0 0 1 4.088-2.188c1.252-.25 23.152-4.545 44.9-3.553-10.032-8.019-26.549-16.981-52.459-20.683a7.994 7.994 0 0 1 -5.525-3.481c-.543-.784-14.518-20.438-49.343-20.438-41.119 0-56.1 57.371-56.241 57.95a8.035 8.035 0 0 1 -2.194 3.8c-.263.255-26.928 26.265-59.6 71.276a739.365 739.365 0 0 0 -61.935 101.712c32.269-6.006 78.954-18.126 111.32-41.248a8 8 0 0 1 10.129.681zm74.521-162.171a8 8 0 1 1 -8 8 8 8 0 0 1 8-8z"/><path d="m117.054 436.905-17.238 43.095h55.089l35.088-75.188c-16.712 8.719-32.211 15.842-45.907 21.569-9.566 4-18.6 7.482-27.032 10.524z"/><path d="m159.31 341.437a194.407 194.407 0 0 0 66.241-50.213l22.6-36.166c-34.86 16.627-74.946 25.241-100.709 29.414a639.6 639.6 0 0 0 -25.652 63.481l7.388 3.694a147.27 147.27 0 0 0 30.132-10.21z"/><path d="m314.669 297.432a599.513 599.513 0 0 1 -79 6.536c-43.068 48.643-91.2 60.966-103.58 63.428l-61.089 67.196a522.223 522.223 0 0 0 67.435-23.192 605.205 605.205 0 0 0 176.234-113.968z"/><path d="m327.16 475.58a8.017 8.017 0 0 1 -10.74 3.58l-28.07-14.04-8.55 5.13a7.992 7.992 0 0 1 -11.38 8.91l-1.89-.95-14.41 8.65a8 8 0 1 1 -8.24-13.72l5.69-3.41-9.22-4.61-36.23 21.74a8 8 0 1 1 -8.24-13.72l34.02-20.41-19.18-44.73h-2.72l-1.51-12.1c10.61-5.96 21.61-12.53 32.87-19.79l-7.36 31.89h-3.87l18.07 42.16 19.63 9.81 12.07-7.24-19.18-44.73h-2.72l-4.95-39.61c15.06-10.19 30.49-21.59 46.01-34.33l-17.06 73.94h-3.87l18.07 42.16 29.38 14.68a8.017 8.017 0 0 1 3.58 10.74z"/></svg>